<svg width="128" height="128" viewBox="0 0 128 128" fill="none" xmlns="http://www.w3.org/2000/svg">
  <path d="M25.5 52.5C31.8 25.8 57.6 9.1 84.2 16.7C110.8 24.3 124.7 52.3 114.2 77.9L121.2 107.3L91.6 99.5C74.8 109.9 52.2 109.5 36 96.8C22.2 86 18.6 69.1 25.5 52.5Z" stroke="url(#bubble)" stroke-width="8" stroke-linecap="round" stroke-linejoin="round"/>
  <path d="M50.8 42.2C52 36.2 57.3 32 63.4 32H65.4C69.3 32 72.2 35.6 71.4 39.4L67.2 59.3H83.8L87.5 42.2C88.8 36.2 94.1 32 100.2 32H102.2C106.1 32 109 35.6 108.2 39.4L98.8 84.8C97.6 90.8 92.3 95 86.2 95H84.2C80.3 95 77.4 91.4 78.2 87.6L82.5 67.1H65.8L62.2 84.8C61 90.8 55.7 95 49.6 95H47.6C43.7 95 40.8 91.4 41.6 87.6L50.8 42.2Z" fill="url(#hfill)" filter="url(#glow)"/>
  <path d="M9 45H36M14 61H36M18 78H36" stroke="url(#lines)" stroke-width="5" stroke-linecap="round"/>
  <circle cx="23" cy="32" r="4" fill="#20A7FF"/>
  <circle cx="36" cy="23" r="4" fill="#8B5CF6"/>
  <circle cx="19" cy="86" r="4" fill="#20A7FF"/>
  <defs>
    <linearGradient id="bubble" x1="23" y1="18" x2="120" y2="106" gradientUnits="userSpaceOnUse">
      <stop stop-color="#10BDF7"/>
      <stop offset="0.48" stop-color="#0A7BFF"/>
      <stop offset="1" stop-color="#7C4DFF"/>
    </linearGradient>
    <linearGradient id="hfill" x1="49" y1="34" x2="100" y2="96" gradientUnits="userSpaceOnUse">
      <stop stop-color="#DFFFFA"/>
      <stop offset="0.43" stop-color="#16D3E8"/>
      <stop offset="1" stop-color="#0A63F7"/>
    </linearGradient>
    <linearGradient id="lines" x1="9" y1="45" x2="36" y2="78" gradientUnits="userSpaceOnUse">
      <stop stop-color="#1DD3F2"/>
      <stop offset="1" stop-color="#146FEA"/>
    </linearGradient>
    <filter id="glow" x="35.5" y="27" width="78.8" height="73" filterUnits="userSpaceOnUse" color-interpolation-filters="sRGB">
      <feGaussianBlur stdDeviation="1.8" result="blur"/>
      <feComposite in="SourceGraphic" in2="blur" operator="over"/>
    </filter>
  </defs>
</svg>
